<svg width="292" height="37" viewBox="0 0 292 37" fill="none" xmlns="http://www.w3.org/2000/svg">
<path d="M7.696 2.4H11.2L4.48 36H0.976L7.696 2.4ZM20.1644 36.24C18.1484 36.24 16.2124 35.952 14.3564 35.376C12.5324 34.8 11.1244 34.064 10.1324 33.168L11.7644 30.48C12.7244 31.312 13.9884 31.984 15.5564 32.496C17.1244 33.008 18.7724 33.264 20.5004 33.264C22.9004 33.264 24.7404 32.88 26.0204 32.112C27.3324 31.312 27.9884 30.192 27.9884 28.752C27.9884 27.952 27.7164 27.312 27.1724 26.832C26.6604 26.352 26.0204 25.984 25.2524 25.728C24.4844 25.472 23.3644 25.184 21.8924 24.864C20.1324 24.48 18.7084 24.096 17.6204 23.712C16.5324 23.328 15.6044 22.72 14.8364 21.888C14.0684 21.056 13.6844 19.904 13.6844 18.432C13.6844 16.032 14.6764 14.128 16.6604 12.72C18.6444 11.28 21.3004 10.56 24.6284 10.56C26.2604 10.56 27.8444 10.784 29.3804 11.232C30.9484 11.648 32.2124 12.208 33.1724 12.912L31.7324 15.648C30.7724 14.944 29.6364 14.416 28.3244 14.064C27.0444 13.68 25.7164 13.488 24.3404 13.488C22.0364 13.488 20.2444 13.904 18.9644 14.736C17.6844 15.568 17.0444 16.688 17.0444 18.096C17.0444 18.928 17.3164 19.6 17.8604 20.112C18.4044 20.624 19.0764 21.008 19.8764 21.264C20.7084 21.52 21.8284 21.792 23.2364 22.08C24.9644 22.464 26.3564 22.848 27.4124 23.232C28.5004 23.584 29.4284 24.176 30.1964 25.008C30.9644 25.84 31.3484 26.96 31.3484 28.368C31.3484 30.832 30.3244 32.768 28.2764 34.176C26.2604 35.552 23.5564 36.24 20.1644 36.24ZM41.7287 36.24C39.7128 36.24 37.7768 35.952 35.9208 35.376C34.0967 34.8 32.6887 34.064 31.6967 33.168L33.3287 30.48C34.2887 31.312 35.5527 31.984 37.1207 32.496C38.6888 33.008 40.3368 33.264 42.0648 33.264C44.4648 33.264 46.3048 32.88 47.5848 32.112C48.8968 31.312 49.5528 30.192 49.5528 28.752C49.5528 27.952 49.2808 27.312 48.7368 26.832C48.2248 26.352 47.5848 25.984 46.8168 25.728C46.0488 25.472 44.9288 25.184 43.4568 24.864C41.6968 24.48 40.2728 24.096 39.1847 23.712C38.0968 23.328 37.1688 22.72 36.4007 21.888C35.6328 21.056 35.2488 19.904 35.2488 18.432C35.2488 16.032 36.2408 14.128 38.2248 12.72C40.2088 11.28 42.8648 10.56 46.1928 10.56C47.8248 10.56 49.4088 10.784 50.9448 11.232C52.5128 11.648 53.7768 12.208 54.7368 12.912L53.2968 15.648C52.3368 14.944 51.2008 14.416 49.8888 14.064C48.6088 13.68 47.2808 13.488 45.9047 13.488C43.6007 13.488 41.8088 13.904 40.5288 14.736C39.2488 15.568 38.6088 16.688 38.6088 18.096C38.6088 18.928 38.8808 19.6 39.4248 20.112C39.9688 20.624 40.6408 21.008 41.4408 21.264C42.2728 21.52 43.3928 21.792 44.8007 22.08C46.5288 22.464 47.9208 22.848 48.9768 23.232C50.0648 23.584 50.9928 24.176 51.7608 25.008C52.5288 25.84 52.9128 26.96 52.9128 28.368C52.9128 30.832 51.8888 32.768 49.8408 34.176C47.8248 35.552 45.1208 36.24 41.7287 36.24ZM83.7411 10.752L78.7011 36H75.4371L76.2531 31.968C73.8851 34.816 70.6371 36.24 66.5091 36.24C63.6931 36.24 61.4851 35.52 59.8851 34.08C58.3171 32.608 57.5331 30.576 57.5331 27.984C57.5331 27.088 57.6291 26.144 57.8211 25.152L60.7011 10.752H64.1091L61.2291 25.152C61.0691 26.048 60.9891 26.8 60.9891 27.408C60.9891 29.264 61.5171 30.688 62.5731 31.68C63.6611 32.672 65.2771 33.168 67.4211 33.168C70.1091 33.168 72.3331 32.416 74.0931 30.912C75.8531 29.408 77.0371 27.216 77.6451 24.336L80.3331 10.752H83.7411ZM89.494 24.336C89.462 24.56 89.446 24.896 89.446 25.344C89.446 27.904 90.166 29.856 91.606 31.2C93.078 32.544 95.254 33.216 98.134 33.216C99.798 33.216 101.35 32.944 102.79 32.4C104.262 31.824 105.462 31.04 106.39 30.048L107.926 32.496C106.742 33.68 105.254 34.608 103.462 35.28C101.702 35.92 99.83 36.24 97.846 36.24C94.198 36.24 91.318 35.28 89.206 33.36C87.126 31.44 86.086 28.816 86.086 25.488C86.086 22.672 86.678 20.128 87.862 17.856C89.078 15.584 90.742 13.808 92.854 12.528C94.998 11.216 97.398 10.56 100.054 10.56C103.414 10.56 106.086 11.52 108.07 13.44C110.054 15.328 111.046 17.936 111.046 21.264C111.046 22.192 110.934 23.216 110.71 24.336H89.494ZM99.958 13.44C97.43 13.44 95.27 14.192 93.478 15.696C91.686 17.2 90.47 19.232 89.83 21.792H107.83C107.862 21.568 107.878 21.264 107.878 20.88C107.878 18.512 107.158 16.688 105.718 15.408C104.278 14.096 102.358 13.44 99.958 13.44ZM137.361 5.472H125.505L126.129 2.4H153.345L152.673 5.472H140.865L134.769 36H131.265L137.361 5.472ZM156.395 15.36C157.515 13.728 158.923 12.528 160.619 11.76C162.315 10.96 164.363 10.56 166.763 10.56L166.139 13.872L165.179 13.824C162.459 13.824 160.219 14.608 158.459 16.176C156.731 17.744 155.563 20.08 154.955 23.184L152.411 36H149.003L153.995 10.752H157.259L156.395 15.36ZM193.82 10.752L188.78 36H185.516L186.332 32.016C185.116 33.36 183.676 34.4 182.012 35.136C180.348 35.872 178.508 36.24 176.492 36.24C174.348 36.24 172.444 35.808 170.78 34.944C169.116 34.08 167.82 32.848 166.892 31.248C165.964 29.616 165.5 27.712 165.5 25.536C165.5 22.688 166.108 20.128 167.324 17.856C168.572 15.584 170.284 13.808 172.46 12.528C174.636 11.216 177.068 10.56 179.756 10.56C182.156 10.56 184.172 11.04 185.804 12C187.436 12.928 188.62 14.272 189.356 16.032L190.412 10.752H193.82ZM177.212 33.216C179.292 33.216 181.164 32.72 182.828 31.728C184.492 30.704 185.788 29.296 186.716 27.504C187.676 25.68 188.156 23.648 188.156 21.408C188.156 18.944 187.42 17.024 185.948 15.648C184.508 14.24 182.476 13.536 179.852 13.536C177.772 13.536 175.9 14.048 174.236 15.072C172.572 16.096 171.26 17.52 170.3 19.344C169.372 21.136 168.908 23.152 168.908 25.392C168.908 27.856 169.628 29.776 171.068 31.152C172.54 32.528 174.588 33.216 177.212 33.216ZM207.775 36.24C205.407 36.24 203.343 35.808 201.583 34.944C199.823 34.048 198.463 32.8 197.503 31.2C196.575 29.568 196.111 27.68 196.111 25.536C196.111 22.688 196.735 20.128 197.983 17.856C199.231 15.584 200.975 13.808 203.215 12.528C205.455 11.216 207.983 10.56 210.799 10.56C213.135 10.56 215.135 10.992 216.799 11.856C218.495 12.688 219.807 13.936 220.735 15.6L217.855 17.28C216.415 14.784 213.967 13.536 210.511 13.536C208.431 13.536 206.543 14.048 204.847 15.072C203.183 16.096 201.871 17.504 200.911 19.296C199.983 21.088 199.519 23.12 199.519 25.392C199.519 27.856 200.239 29.776 201.679 31.152C203.151 32.528 205.231 33.216 207.919 33.216C209.551 33.216 211.055 32.912 212.431 32.304C213.839 31.664 214.991 30.752 215.887 29.568L218.335 31.44C217.215 32.944 215.711 34.128 213.823 34.992C211.967 35.824 209.951 36.24 207.775 36.24ZM235.695 21.168L244.767 36H240.783L233.007 23.232L225.951 28.704L224.511 36H221.103L228.207 0.383998H231.615L226.815 24.336L244.191 10.752H249.039L235.695 21.168ZM249.632 24.336C249.6 24.56 249.584 24.896 249.584 25.344C249.584 27.904 250.304 29.856 251.744 31.2C253.216 32.544 255.392 33.216 258.272 33.216C259.936 33.216 261.488 32.944 262.928 32.4C264.4 31.824 265.6 31.04 266.528 30.048L268.064 32.496C266.88 33.68 265.392 34.608 263.6 35.28C261.84 35.92 259.968 36.24 257.984 36.24C254.336 36.24 251.456 35.28 249.344 33.36C247.264 31.44 246.224 28.816 246.224 25.488C246.224 22.672 246.816 20.128 248 17.856C249.216 15.584 250.88 13.808 252.992 12.528C255.136 11.216 257.536 10.56 260.192 10.56C263.552 10.56 266.224 11.52 268.208 13.44C270.192 15.328 271.184 17.936 271.184 21.264C271.184 22.192 271.072 23.216 270.848 24.336H249.632ZM260.096 13.44C257.568 13.44 255.408 14.192 253.616 15.696C251.824 17.2 250.608 19.232 249.968 21.792H267.968C268 21.568 268.016 21.264 268.016 20.88C268.016 18.512 267.296 16.688 265.856 15.408C264.416 14.096 262.496 13.44 260.096 13.44ZM280.905 15.36C282.025 13.728 283.433 12.528 285.129 11.76C286.825 10.96 288.873 10.56 291.273 10.56L290.649 13.872L289.689 13.824C286.969 13.824 284.729 14.608 282.969 16.176C281.241 17.744 280.073 20.08 279.465 23.184L276.921 36H273.513L278.505 10.752H281.769L280.905 15.36Z" fill="black"/>
</svg>
