<svg width="343" height="56" viewBox="0 0 343 56" fill="none" xmlns="http://www.w3.org/2000/svg">
<rect width="343" height="56" rx="20" fill="black"/>
<path d="M89.5566 21.9639C90.063 21.3496 90.4199 20.5112 90.4199 19.6646C90.4199 19.5483 90.4116 19.4321 90.395 19.3408C89.5649 19.374 88.5688 19.8887 87.9795 20.5859C87.5063 21.1172 87.0747 21.9639 87.0747 22.8105C87.0747 22.9434 87.0996 23.0679 87.1079 23.1094C87.1577 23.1177 87.2407 23.1343 87.332 23.1343C88.0708 23.1343 89.0005 22.6362 89.5566 21.9639ZM90.1377 23.3086C88.9009 23.3086 87.8882 24.064 87.2407 24.064C86.5518 24.064 85.6553 23.3584 84.5762 23.3584C82.5259 23.3584 80.4507 25.0518 80.4507 28.2393C80.4507 30.2314 81.2144 32.3315 82.1689 33.6846C82.9824 34.8301 83.6963 35.7681 84.7256 35.7681C85.7383 35.7681 86.1865 35.0957 87.4482 35.0957C88.7266 35.0957 89.0171 35.7515 90.1377 35.7515C91.25 35.7515 91.9888 34.7305 92.6943 33.7261C93.4746 32.5723 93.8066 31.4517 93.8149 31.3936C93.7485 31.377 91.6235 30.5054 91.6235 28.0732C91.6235 25.9648 93.292 25.0186 93.3916 24.9438C92.2876 23.3584 90.6025 23.3086 90.1377 23.3086Z" fill="#FEFEFE"/>
<path d="M103.53 34H105.771L106.784 30.9038H111.242L112.254 34H114.504L110.221 22.022H107.813L103.53 34ZM108.992 24.1553H109.042L110.702 29.252H107.324L108.992 24.1553ZM115.575 36.9053H117.642V32.5142H117.683C118.181 33.5435 119.186 34.1743 120.439 34.1743C122.647 34.1743 124.058 32.4312 124.058 29.6089V29.6006C124.058 26.7617 122.647 25.0186 120.414 25.0186C119.152 25.0186 118.189 25.666 117.683 26.7202H117.642V25.2012H115.575V36.9053ZM119.8 32.4312C118.521 32.4312 117.625 31.3271 117.625 29.6089V29.6006C117.625 27.874 118.521 26.7617 119.8 26.7617C121.12 26.7617 121.95 27.8408 121.95 29.6006V29.6089C121.95 31.3438 121.12 32.4312 119.8 32.4312ZM125.386 36.9053H127.453V32.5142H127.495C127.993 33.5435 128.997 34.1743 130.25 34.1743C132.458 34.1743 133.87 32.4312 133.87 29.6089V29.6006C133.87 26.7617 132.458 25.0186 130.226 25.0186C128.964 25.0186 128.001 25.666 127.495 26.7202H127.453V25.2012H125.386V36.9053ZM129.611 32.4312C128.333 32.4312 127.437 31.3271 127.437 29.6089V29.6006C127.437 27.874 128.333 26.7617 129.611 26.7617C130.931 26.7617 131.761 27.8408 131.761 29.6006V29.6089C131.761 31.3438 130.931 32.4312 129.611 32.4312ZM135.256 34H137.323V22.022H135.256V34ZM142.951 34.1743C145.25 34.1743 146.545 32.813 146.819 31.46L146.844 31.3687H144.91L144.893 31.4268C144.694 32.0161 144.021 32.564 142.992 32.564C141.647 32.564 140.801 31.6509 140.768 30.1069H146.927V29.4429C146.927 26.7866 145.366 25.0186 142.851 25.0186C140.336 25.0186 138.717 26.8447 138.717 29.6172V29.6255C138.717 32.4229 140.311 34.1743 142.951 34.1743ZM142.876 26.6372C143.972 26.6372 144.769 27.3345 144.918 28.729H140.792C140.958 27.376 141.78 26.6372 142.876 26.6372ZM159.677 23.936H158.164C158.249 23.205 158.3 22.457 158.3 21.658H152.214V23.443H156.073C155.784 26.503 154.424 28.764 151.33 30.651L152.605 32.215C155.529 30.481 157.093 28.305 157.79 25.721H159.677V27.846H157.501V29.648H159.677V34.782H161.768V20.145H159.677V23.936ZM162.89 19.788V35.462H165.015V19.788H162.89ZM175.689 23.579V25.398H178.035V29.121H180.279V19.805H178.035V23.579H175.689ZM176.624 26.945C174.244 26.163 173.156 24.327 173.088 22.542H176.131V20.74H167.716V22.542H170.793C170.725 24.497 169.586 26.486 167.104 27.353L168.243 29.121C170.062 28.509 171.303 27.234 171.983 25.653C172.663 27.03 173.836 28.135 175.536 28.696L176.624 26.945ZM174.992 33.779C172.935 33.779 171.864 33.354 171.864 32.47C171.864 31.586 172.935 31.161 174.992 31.161C177.032 31.161 178.103 31.586 178.103 32.47C178.103 33.354 177.032 33.779 174.992 33.779ZM174.992 29.461C171.66 29.461 169.62 30.566 169.62 32.47C169.62 34.374 171.66 35.479 174.992 35.479C178.307 35.479 180.347 34.374 180.347 32.47C180.347 30.566 178.307 29.461 174.992 29.461ZM189.9 20.587C186.619 20.587 184.069 22.389 184.069 25.126C184.069 27.846 186.619 29.648 189.9 29.648C193.198 29.648 195.748 27.846 195.748 25.126C195.748 22.389 193.198 20.587 189.9 20.587ZM189.9 22.423C192.042 22.423 193.555 23.426 193.555 25.126C193.555 26.792 192.042 27.812 189.9 27.812C187.775 27.812 186.262 26.792 186.262 25.126C186.262 23.426 187.775 22.423 189.9 22.423ZM182.828 31.756V33.592H197.006V31.756H182.828ZM206.661 31.909V29.58H211.404V27.778H202.326V26.027H211.047V20.808H200.082V22.593H208.837V24.276H200.099V29.58H204.417V31.909H198.467V33.745H212.645V31.909H206.661ZM225.703 31.909V29.58H230.446V27.778H221.368V26.027H230.089V20.808H219.124V22.593H227.879V24.276H219.141V29.58H223.459V31.909H217.509V33.745H231.687V31.909H225.703ZM243.331 23.103C243.331 25.228 243.331 27.455 242.77 30.447L244.997 30.651C245.575 27.438 245.575 25.296 245.575 23.103V21.25H234.61V23.035H243.331V23.103ZM233.148 31.586V33.422H247.309V31.586H233.148ZM261.791 19.822H259.53V31.059H261.791V19.822ZM251.2 24.786C251.2 23.494 252.118 22.746 253.274 22.746C254.447 22.746 255.331 23.494 255.331 24.786C255.331 26.044 254.447 26.809 253.274 26.809C252.118 26.809 251.2 26.044 251.2 24.786ZM257.524 24.786C257.524 22.474 255.671 20.808 253.274 20.808C250.877 20.808 249.007 22.474 249.007 24.786C249.007 27.064 250.877 28.747 253.274 28.747C255.671 28.747 257.524 27.064 257.524 24.786ZM253.614 33.405V29.954H251.37V35.19H262.182V33.405H253.614Z" fill="#FEFEFE"/>
</svg>
